<svg id="Layer_1" enable-background="new 0 0 512 512" height="512" viewBox="0 0 512 512" width="512" xmlns="http://www.w3.org/2000/svg"><g><path d="m442.676 350.359h-359.701c-8.27 0-14.982 6.69-15.009 14.96l-.395 121.651h376.568c37.871-.233 68.476-31.376 67.852-69.449-.614-37.444-31.866-67.162-69.315-67.162z" fill="#c8003c"/><path d="m196.702 59.173-187.334 324.464c-18.725 32.431-8.614 74.356 23.506 93.609 32.66 19.577 74.933 8.644 94.071-24.036l180.759-313.075c4.154-7.195 1.673-16.396-5.536-20.526z" fill="#ff6478"/><path d="m221.697 34.173c32.646-18.848 74.459-7.645 93.307 25l187.844 325.346c18.848 32.645 7.645 74.459-25 93.307-32.52 18.776-74.14 7.737-93.085-24.616l-188.288-326.115c-18.546-32.583-7.298-74.147 25.222-92.922z" fill="#ff0032"/><path d="m255.855 229.941 128.908 223.269c18.946 32.353 60.565 43.392 93.085 24.616 32.646-18.848 43.849-60.662 25-93.307l-187.844-325.346c-12.629-21.873-35.567-34.1-59.15-34.132v204.9z" fill="#c8003c"/><path d="m443.695 350.359h-187.84v136.611h188.284c37.491-.231 67.861-30.755 67.861-68.306 0-37.696-30.609-68.305-68.305-68.305z" fill="#78141e"/><g clip-rule="evenodd" fill-rule="evenodd"><path d="m443.695 403.664c-8.28 0-15 6.72-15 15s6.72 15 15 15 15-6.72 15-15-6.72-15-15-15" fill="#0a0400"/><path d="m68.015 403.664c-8.28 0-15 6.72-15 15s6.72 15 15 15 15-6.72 15-15-6.72-15-15-15" fill="#352e2f"/><path d="m255.855 78.321c-8.28 0-15 6.72-15 15s6.72 15 15 15 15-6.72 15-15-6.72-15-15-15" fill="#352e2f"/><path d="m255.855 78.321v30c8.28 0 15-6.72 15-15s-6.72-15-15-15" fill="#0a0400"/></g></g></svg>